<?xml version="1.0" encoding="UTF-8" standalone="no"?>
<!DOCTYPE svg PUBLIC "-//W3C//DTD SVG 1.1//EN"
 "http://www.w3.org/Graphics/SVG/1.1/DTD/svg11.dtd">
<!-- Generated by graphviz version 8.0.5 (0)
 -->
<!-- Title: foo Pages: 1 -->
<svg width="460pt" height="811pt"
 viewBox="0.00 0.00 459.50 810.50" xmlns="http://www.w3.org/2000/svg" xmlns:xlink="http://www.w3.org/1999/xlink">
<g id="graph0" class="graph" transform="scale(1 1) rotate(0) translate(4 806.5)">
<title>foo</title>
<!-- %3 -->
<g id="node1" class="node">
<title>%3</title>
<polygon fill="none" stroke="black" points="175,-36.5 81.75,-36.5 81.75,0 175,0 175,-36.5"/>
<text text-anchor="start" x="89.75" y="-21.1" font-family="Times,serif" font-size="12.00">%bb5: %if.else0</text>
<text text-anchor="start" x="89.75" y="-6.85" font-family="Times,serif" font-size="12.00"> &#160;&#160;&#160;throw %10</text>
</g>
<!-- %5 -->
<g id="node2" class="node">
<title>%5</title>
<polygon fill="none" stroke="black" points="408.12,-36.5 312.62,-36.5 312.62,0 408.12,0 408.12,-36.5"/>
<text text-anchor="start" x="320.62" y="-21.1" font-family="Times,serif" font-size="12.00">%bb6: %if.then0</text>
<text text-anchor="start" x="320.62" y="-6.85" font-family="Times,serif" font-size="12.00"> &#160;&#160;&#160;return %14</text>
</g>
<!-- foo -->
<g id="node3" class="node">
<title>foo</title>
<polygon fill="none" stroke="black" points="451.5,-802.5 37.25,-802.5 37.25,-766.5 451.5,-766.5 451.5,-802.5"/>
<text text-anchor="middle" x="244.38" y="-780.23" font-family="Times,serif" font-size="12.00">org/example/PointKt::foo(org/example/Point, org/example/Point): org/example/Point</text>
</g>
<!-- %7 -->
<g id="node4" class="node">
<title>%7</title>
<polygon fill="none" stroke="black" points="284.25,-730.5 204.5,-730.5 204.5,-694 284.25,-694 284.25,-730.5"/>
<text text-anchor="start" x="212.5" y="-715.1" font-family="Times,serif" font-size="12.00">%entry0: </text>
<text text-anchor="start" x="212.5" y="-700.85" font-family="Times,serif" font-size="12.00"> &#160;&#160;&#160;goto %bb0</text>
</g>
<!-- foo&#45;&gt;%7 -->
<g id="edge1" class="edge">
<title>foo&#45;&gt;%7</title>
<path fill="none" stroke="black" d="M244.38,-766.13C244.38,-758.76 244.38,-749.97 244.38,-741.69"/>
<polygon fill="black" stroke="black" points="247.88,-741.9 244.38,-731.9 240.88,-741.9 247.88,-741.9"/>
</g>
<!-- %13 -->
<g id="node7" class="node">
<title>%13</title>
<polygon fill="none" stroke="black" points="379.88,-658 108.88,-658 108.88,-607.25 379.88,-607.25 379.88,-658"/>
<text text-anchor="start" x="116.88" y="-642.6" font-family="Times,serif" font-size="12.00">%bb0: %entry0</text>
<text text-anchor="start" x="116.88" y="-628.35" font-family="Times,serif" font-size="12.00"> &#160;&#160;&#160;static Intrinsics.checkNotNullParameter(arg$0, &quot;a&quot;)</text>
<text text-anchor="start" x="116.88" y="-614.1" font-family="Times,serif" font-size="12.00"> &#160;&#160;&#160;goto %bb1</text>
</g>
<!-- %7&#45;&gt;%13 -->
<g id="edge2" class="edge">
<title>%13&#45;&gt;%13</title>
<path fill="none" stroke="black" d="M244.38,-693.64C244.38,-686.36 244.38,-677.65 244.38,-669.14"/>
<polygon fill="black" stroke="black" points="247.88,-669.23 244.38,-659.23 240.88,-669.23 247.88,-669.23"/>
</g>
<!-- %9 -->
<g id="node5" class="node">
<title>%9</title>
<polygon fill="none" stroke="black" points="345,-224.25 143.75,-224.25 143.75,-173.5 345,-173.5 345,-224.25"/>
<text text-anchor="start" x="151.75" y="-208.85" font-family="Times,serif" font-size="12.00">%label0: %bb4</text>
<text text-anchor="start" x="151.75" y="-194.6" font-family="Times,serif" font-size="12.00"> &#160;&#160;&#160;%7 = (%13 &gt; 0)</text>
<text text-anchor="start" x="151.75" y="-180.35" font-family="Times,serif" font-size="12.00"> &#160;&#160;&#160;if (%7) goto %if.then0 else %if.else0</text>
</g>
<!-- %11 -->
<g id="node6" class="node">
<title>%11</title>
<polygon fill="none" stroke="black" points="256.75,-137.5 0,-137.5 0,-72.5 256.75,-72.5 256.75,-137.5"/>
<text text-anchor="start" x="8" y="-122.1" font-family="Times,serif" font-size="12.00">%if.else0: %label0</text>
<text text-anchor="start" x="8" y="-107.85" font-family="Times,serif" font-size="12.00"> &#160;&#160;&#160;%10 = new java/lang/IllegalArgumentException</text>
<text text-anchor="start" x="8" y="-93.6" font-family="Times,serif" font-size="12.00"> &#160;&#160;&#160;special %10.&lt;init&gt;()</text>
<text text-anchor="start" x="8" y="-79.35" font-family="Times,serif" font-size="12.00"> &#160;&#160;&#160;goto %bb5</text>
</g>
<!-- %9&#45;&gt;%11 -->
<g id="edge3" class="edge">
<title>%11&#45;&gt;%11</title>
<path fill="none" stroke="black" d="M212.98,-173.01C201.86,-164.2 189.07,-154.08 176.86,-144.41"/>
<polygon fill="black" stroke="black" points="179.54,-141.27 169.53,-137.81 175.2,-146.76 179.54,-141.27"/>
</g>
<!-- %15 -->
<g id="node8" class="node">
<title>%15</title>
<polygon fill="none" stroke="black" points="446.38,-137.5 274.38,-137.5 274.38,-72.5 446.38,-72.5 446.38,-137.5"/>
<text text-anchor="start" x="282.38" y="-122.1" font-family="Times,serif" font-size="12.00">%if.then0: %label0</text>
<text text-anchor="start" x="282.38" y="-107.85" font-family="Times,serif" font-size="12.00"> &#160;&#160;&#160;%14 = new org/example/Point</text>
<text text-anchor="start" x="282.38" y="-93.6" font-family="Times,serif" font-size="12.00"> &#160;&#160;&#160;special %14.&lt;init&gt;(%13, 0)</text>
<text text-anchor="start" x="282.38" y="-79.35" font-family="Times,serif" font-size="12.00"> &#160;&#160;&#160;goto %bb6</text>
</g>
<!-- %9&#45;&gt;%15 -->
<g id="edge4" class="edge">
<title>%15&#45;&gt;%15</title>
<path fill="none" stroke="black" d="M275.77,-173.01C286.89,-164.2 299.68,-154.08 311.89,-144.41"/>
<polygon fill="black" stroke="black" points="313.55,-146.76 319.22,-137.81 309.21,-141.27 313.55,-146.76"/>
</g>
<!-- %11&#45;&gt;%3 -->
<g id="edge5" class="edge">
<title>%3&#45;&gt;%3</title>
<path fill="none" stroke="black" d="M128.38,-72.44C128.38,-64.35 128.38,-55.69 128.38,-47.76"/>
<polygon fill="black" stroke="black" points="131.88,-47.81 128.38,-37.81 124.88,-47.81 131.88,-47.81"/>
</g>
<!-- %21 -->
<g id="node11" class="node">
<title>%21</title>
<polygon fill="none" stroke="black" points="380.25,-571.25 108.5,-571.25 108.5,-520.5 380.25,-520.5 380.25,-571.25"/>
<text text-anchor="start" x="116.5" y="-555.85" font-family="Times,serif" font-size="12.00">%bb1: %bb0</text>
<text text-anchor="start" x="116.5" y="-541.6" font-family="Times,serif" font-size="12.00"> &#160;&#160;&#160;static Intrinsics.checkNotNullParameter(arg$1, &quot;b&quot;)</text>
<text text-anchor="start" x="116.5" y="-527.35" font-family="Times,serif" font-size="12.00"> &#160;&#160;&#160;goto %bb2</text>
</g>
<!-- %13&#45;&gt;%21 -->
<g id="edge6" class="edge">
<title>%21&#45;&gt;%21</title>
<path fill="none" stroke="black" d="M244.38,-607.11C244.38,-599.45 244.38,-590.83 244.38,-582.56"/>
<polygon fill="black" stroke="black" points="247.88,-582.63 244.38,-572.63 240.88,-582.63 247.88,-582.63"/>
</g>
<!-- %15&#45;&gt;%5 -->
<g id="edge7" class="edge">
<title>%5&#45;&gt;%5</title>
<path fill="none" stroke="black" d="M360.38,-72.44C360.38,-64.35 360.38,-55.69 360.38,-47.76"/>
<polygon fill="black" stroke="black" points="363.88,-47.81 360.38,-37.81 356.88,-47.81 363.88,-47.81"/>
</g>
<!-- %17 -->
<g id="node9" class="node">
<title>%17</title>
<polygon fill="none" stroke="black" points="319.5,-397.75 169.25,-397.75 169.25,-347 319.5,-347 319.5,-397.75"/>
<text text-anchor="start" x="177.25" y="-382.35" font-family="Times,serif" font-size="12.00">%bb3: %bb2</text>
<text text-anchor="start" x="177.25" y="-368.1" font-family="Times,serif" font-size="12.00"> &#160;&#160;&#160;%3 = virtual arg$1.getX()</text>
<text text-anchor="start" x="177.25" y="-353.85" font-family="Times,serif" font-size="12.00"> &#160;&#160;&#160;goto %bb4</text>
</g>
<!-- %19 -->
<g id="node10" class="node">
<title>%19</title>
<polygon fill="none" stroke="black" points="335.62,-311 153.12,-311 153.12,-260.25 335.62,-260.25 335.62,-311"/>
<text text-anchor="start" x="161.12" y="-295.6" font-family="Times,serif" font-size="12.00">%bb4: %bb3</text>
<text text-anchor="start" x="161.12" y="-281.35" font-family="Times,serif" font-size="12.00"> &#160;&#160;&#160;%13 = static Math.max(%2, %3)</text>
<text text-anchor="start" x="161.12" y="-267.1" font-family="Times,serif" font-size="12.00"> &#160;&#160;&#160;goto %label0</text>
</g>
<!-- %17&#45;&gt;%19 -->
<g id="edge8" class="edge">
<title>%19&#45;&gt;%19</title>
<path fill="none" stroke="black" d="M244.38,-346.86C244.38,-339.2 244.38,-330.58 244.38,-322.31"/>
<polygon fill="black" stroke="black" points="247.88,-322.38 244.38,-312.38 240.88,-322.38 247.88,-322.38"/>
</g>
<!-- %19&#45;&gt;%9 -->
<g id="edge9" class="edge">
<title>%9&#45;&gt;%9</title>
<path fill="none" stroke="black" d="M244.38,-260.11C244.38,-252.45 244.38,-243.83 244.38,-235.56"/>
<polygon fill="black" stroke="black" points="247.88,-235.63 244.38,-225.63 240.88,-235.63 247.88,-235.63"/>
</g>
<!-- %23 -->
<g id="node12" class="node">
<title>%23</title>
<polygon fill="none" stroke="black" points="319.5,-484.5 169.25,-484.5 169.25,-433.75 319.5,-433.75 319.5,-484.5"/>
<text text-anchor="start" x="177.25" y="-469.1" font-family="Times,serif" font-size="12.00">%bb2: %bb1</text>
<text text-anchor="start" x="177.25" y="-454.85" font-family="Times,serif" font-size="12.00"> &#160;&#160;&#160;%2 = virtual arg$0.getX()</text>
<text text-anchor="start" x="177.25" y="-440.6" font-family="Times,serif" font-size="12.00"> &#160;&#160;&#160;goto %bb3</text>
</g>
<!-- %21&#45;&gt;%23 -->
<g id="edge10" class="edge">
<title>%23&#45;&gt;%23</title>
<path fill="none" stroke="black" d="M244.38,-520.36C244.38,-512.7 244.38,-504.08 244.38,-495.81"/>
<polygon fill="black" stroke="black" points="247.88,-495.88 244.38,-485.88 240.88,-495.88 247.88,-495.88"/>
</g>
<!-- %23&#45;&gt;%17 -->
<g id="edge11" class="edge">
<title>%17&#45;&gt;%17</title>
<path fill="none" stroke="black" d="M244.38,-433.61C244.38,-425.95 244.38,-417.33 244.38,-409.06"/>
<polygon fill="black" stroke="black" points="247.88,-409.13 244.38,-399.13 240.88,-409.13 247.88,-409.13"/>
</g>
</g>
</svg>
